<mxfile host="app.diagrams.net" modified="2024-03-13T07:18:16.791Z" agent="Mozilla/5.0 (Linux; Android 10; K) AppleWebKit/537.36 (KHTML, like Gecko) Chrome/122.0.0.0 Mobile Safari/537.36" version="24.0.5" etag="UDbNvU0zStGAEBbbmGKu" type="github">
  <diagram name="Page-1" id="oyviDPr4gYspWXBhJde-">
    <mxGraphModel>
      <root>
        <mxCell id="0" />
        <mxCell id="1" parent="0" />
      </root>
    </mxGraphModel>
  </diagram>
</mxfile>
